<svg xmlns="http://www.w3.org/2000/svg" viewBox="0 0 500 500"><g id="freepik--Clouds--inject-2"><path d="M297.6,127H182.06a.49.49,0,0,1-.39-.19.48.48,0,0,1-.09-.43c0-.16,1-3.86,6.15-4.33a30,30,0,0,1,3.52-.15h0a3.76,3.76,0,0,0,3.21-1.06,6.13,6.13,0,0,0,1.39-2.59c.87-2.34,2.05-5.55,6.8-5.87a11.33,11.33,0,0,1,6.72,1.56c1.63.84,2.92,1.51,5.45.67s2.54-2,2.58-4a11.07,11.07,0,0,1,2-6.82c2.23-3.22,6.34-3.42,9.65-3.59,3-.15,4.76-.31,4.76-1.83,0-9.27,5.15-15.7,13.77-17.2,9.2-1.6,21,3.22,24.93,14.06.18.51.35,1,.51,1.52h0l.32,1c1.27,4,2.37,7.47,6.86,9.39a5.73,5.73,0,0,0,5.4-.14c1.92-.83,4.11-1.76,8.72,1.05,8.15,5,3.91,18,3.73,18.6A.5.5,0,0,1,297.6,127Zm-114.79-1H297.23c.6-2.07,3.38-12.94-3.4-17.08-4.17-2.55-5.94-1.79-7.81-1a6.69,6.69,0,0,1-6.19.14c-4.9-2.1-6.12-5.94-7.41-10l-.32-1c-.16-.49-.33-1-.5-1.48-3.72-10.35-15-14.95-23.82-13.42-8.1,1.42-12.94,7.48-12.94,16.22,0,2.54-2.77,2.68-5.71,2.83-3.25.16-6.93.35-8.88,3.16a10.27,10.27,0,0,0-1.82,6.27c0,2.06-.08,3.85-3.26,4.9-2.94,1-4.54.15-6.23-.72a10.3,10.3,0,0,0-6.2-1.45c-4.09.28-5.07,2.9-5.92,5.22a6.75,6.75,0,0,1-1.7,3,4.68,4.68,0,0,1-3.84,1.28h-.05a32.72,32.72,0,0,0-3.41.15C184.62,123.32,183.3,125,182.81,126Z" style="fill:#b2b2b2"></path><path d="M229.57,124.35a.49.49,0,0,1-.49-.46c0-.13-.2-3.22,4-4.86,2.4-.93,3.61.3,4.49,1.19s1.27,1.23,2.23.78,1.16-1.5,1.48-2.88c.52-2.23,1.17-5,5.15-5.85s5.36.94,6.39,2.24c.7.9,1.11,1.35,1.91,1.23,1.48-.23,2.09-2,2.72-3.84a12.87,12.87,0,0,1,1.52-3.36,9,9,0,0,1,6.15-3.2,10.48,10.48,0,0,1,8.3,3.13c6,5.59,3.64,13.28,3.62,13.36a.5.5,0,0,1-.63.32.49.49,0,0,1-.32-.63c0-.07,2.21-7.16-3.35-12.31a9.5,9.5,0,0,0-7.52-2.87,8,8,0,0,0-5.44,2.79,12.08,12.08,0,0,0-1.38,3.1c-.71,2-1.44,4.18-3.52,4.5-1.43.22-2.15-.71-2.85-1.6-1-1.28-2-2.6-5.39-1.89s-3.88,3-4.39,5.11c-.35,1.51-.69,2.94-2,3.56-1.64.76-2.59-.21-3.36-1s-1.63-1.65-3.42-1c-3.49,1.35-3.38,3.75-3.38,3.85a.5.5,0,0,1-.46.53Z" style="fill:#b2b2b2"></path><path d="M216.49,122.41A.49.49,0,0,1,216,122c0-.11-.24-2.79,3.67-4.62a9.18,9.18,0,0,1,4.64-.86,6.23,6.23,0,0,0,3.35-.58c.94-.48,1.14-1.65,1.39-3.14.39-2.3.92-5.44,4.92-7.29a11.43,11.43,0,0,1,11.66,1,.5.5,0,0,1-.62.79,10.38,10.38,0,0,0-10.62-.91c-3.52,1.62-4,4.24-4.35,6.55-.28,1.62-.54,3.16-1.94,3.86a7.22,7.22,0,0,1-3.82.69,8.17,8.17,0,0,0-4.18.77c-3.23,1.51-3.12,3.53-3.11,3.62a.5.5,0,0,1-.45.54Z" style="fill:#b2b2b2"></path><path d="M120.44,160.53H68.72a.51.51,0,0,1-.4-.19.54.54,0,0,1-.09-.43,3.17,3.17,0,0,1,3-2.15,15.33,15.33,0,0,1,1.6-.07,1.59,1.59,0,0,0,1.28-.41,2.62,2.62,0,0,0,.54-1,3.53,3.53,0,0,1,3.28-2.81,5.4,5.4,0,0,1,3.16.73,2.38,2.38,0,0,0,2.22.28c.94-.31,1-.64,1-1.53a5.29,5.29,0,0,1,.94-3.2c1.08-1.55,3-1.65,4.53-1.72s1.87-.16,1.87-.55c0-4.29,2.39-7.27,6.4-8,4.23-.74,9.67,1.48,11.46,6.47l.24.69.14.45c.55,1.73,1,3.22,2.91,4a2.32,2.32,0,0,0,2.2-.06c.93-.4,2-.85,4.16.49,3.84,2.34,1.87,8.39,1.79,8.65A.51.51,0,0,1,120.44,160.53Zm-50.86-1h50.49c.33-1.24,1.24-5.49-1.46-7.14-1.75-1.06-2.44-.77-3.24-.42a3.29,3.29,0,0,1-3,.06c-2.31-1-2.9-2.85-3.47-4.65l-.15-.44h0c-.07-.22-.14-.44-.22-.66a9.46,9.46,0,0,0-10.35-5.82c-3.49.6-5.57,3.21-5.57,7,0,1.4-1.5,1.48-2.82,1.55s-3,.14-3.76,1.29a4.24,4.24,0,0,0-.76,2.66,2.16,2.16,0,0,1-1.65,2.45,3.36,3.36,0,0,1-3-.34,4.33,4.33,0,0,0-2.63-.62c-1.66.11-2,1.11-2.42,2.16a3.11,3.11,0,0,1-.85,1.47,2.34,2.34,0,0,1-1.89.63h0a13.5,13.5,0,0,0-1.5.07A2.55,2.55,0,0,0,69.58,159.53Z" style="fill:#b2b2b2"></path><path d="M90,159.35a.5.5,0,0,1-.5-.46c0-.07-.1-1.65,2-2.45a1.89,1.89,0,0,1,2.31.59c.37.38.44.41.68.3s.37-.51.51-1.11a3.13,3.13,0,0,1,2.52-2.83,2.71,2.71,0,0,1,3.14,1.11c.32.41.4.47.59.45.47-.07.69-.63,1-1.54a5.92,5.92,0,0,1,.72-1.57,4.27,4.27,0,0,1,2.95-1.55,4.94,4.94,0,0,1,3.93,1.47A6.23,6.23,0,0,1,111.5,158a.5.5,0,0,1-1-.31,5.22,5.22,0,0,0-1.42-5.22,4,4,0,0,0-3.15-1.21,3.29,3.29,0,0,0-2.24,1.13,5,5,0,0,0-.58,1.32c-.33.95-.7,2-1.8,2.2a1.58,1.58,0,0,1-1.53-.82,1.73,1.73,0,0,0-2.14-.75c-1.33.29-1.53,1.12-1.75,2.08-.17.71-.34,1.45-1.07,1.78a1.45,1.45,0,0,1-1.81-.5c-.38-.38-.6-.61-1.23-.36-1.36.53-1.34,1.41-1.34,1.45a.52.52,0,0,1-.47.53Z" style="fill:#b2b2b2"></path><path d="M84.13,158.48a.51.51,0,0,1-.5-.45c0-.06-.12-1.44,1.81-2.34a4.22,4.22,0,0,1,2.2-.41A2.55,2.55,0,0,0,89,155c.28-.14.36-.53.47-1.2a4,4,0,0,1,2.36-3.47,5.41,5.41,0,0,1,5.51.5.5.5,0,1,1-.62.78,4.42,4.42,0,0,0-4.47-.37A3,3,0,0,0,90.47,154c-.13.77-.26,1.56-1,1.94a3.48,3.48,0,0,1-1.84.33,3.47,3.47,0,0,0-1.75.32c-1.25.59-1.23,1.33-1.23,1.36a.49.49,0,0,1-.46.52Z" style="fill:#b2b2b2"></path><path d="M435.24,55.19H383.52a.53.53,0,0,1-.4-.19.54.54,0,0,1-.09-.43,3.17,3.17,0,0,1,3-2.15c.73-.06,1.22-.06,1.59-.06h0a1.43,1.43,0,0,0,1.26-.42,2.75,2.75,0,0,0,.54-1,3.52,3.52,0,0,1,3.28-2.8,5.35,5.35,0,0,1,3.16.72,2.35,2.35,0,0,0,2.22.28c.94-.31.95-.64,1-1.52a5.27,5.27,0,0,1,.94-3.2c1.08-1.56,3-1.65,4.53-1.73s1.87-.16,1.87-.55c0-4.29,2.39-7.27,6.4-8,4.22-.74,9.67,1.49,11.46,6.48.09.23.16.46.24.68l.14.45c.55,1.73,1,3.23,2.91,4a2.34,2.34,0,0,0,2.2-.07c.93-.39,2-.84,4.16.49,3.84,2.35,1.87,8.39,1.79,8.65A.51.51,0,0,1,435.24,55.19Zm-50.86-1h50.49c.33-1.24,1.24-5.49-1.46-7.13-1.74-1.07-2.44-.77-3.24-.43a3.26,3.26,0,0,1-3,.06c-2.31-1-2.9-2.84-3.47-4.64l-.15-.45h0c-.07-.22-.14-.44-.22-.66A9.47,9.47,0,0,0,413,35.12c-3.49.61-5.57,3.22-5.57,7,0,1.41-1.5,1.48-2.82,1.55s-3,.15-3.76,1.3a4.2,4.2,0,0,0-.76,2.65,2.15,2.15,0,0,1-1.65,2.45,3.33,3.33,0,0,1-3-.34,4.33,4.33,0,0,0-2.63-.62c-1.66.11-2,1.11-2.42,2.16a3.13,3.13,0,0,1-.84,1.47,2.35,2.35,0,0,1-1.9.64h0c-.35,0-.81,0-1.5.06A2.55,2.55,0,0,0,384.38,54.19Z" style="fill:#b2b2b2"></path><path d="M404.79,54a.5.5,0,0,1-.5-.46,2.61,2.61,0,0,1,2-2.45,1.91,1.91,0,0,1,2.31.59c.37.38.44.41.68.3s.37-.5.51-1.11a3.13,3.13,0,0,1,2.52-2.82,2.7,2.7,0,0,1,3.14,1.1c.32.41.4.48.59.45.47-.07.69-.63,1-1.54a6.07,6.07,0,0,1,.72-1.57A4.31,4.31,0,0,1,420.68,45a5,5,0,0,1,3.93,1.48,6.21,6.21,0,0,1,1.69,6.26.49.49,0,0,1-.62.33.51.51,0,0,1-.33-.63,5.21,5.21,0,0,0-1.42-5.23A4,4,0,0,0,420.78,46a3.26,3.26,0,0,0-2.24,1.14A4.8,4.8,0,0,0,418,48.4c-.33,1-.7,2-1.8,2.2a1.56,1.56,0,0,1-1.53-.82,1.73,1.73,0,0,0-2.14-.74c-1.33.28-1.53,1.11-1.75,2.07-.17.72-.34,1.45-1.07,1.79a1.46,1.46,0,0,1-1.81-.5c-.38-.38-.61-.61-1.23-.37-1.36.53-1.34,1.42-1.34,1.45a.51.51,0,0,1-.47.53Z" style="fill:#b2b2b2"></path><path d="M398.93,53.14a.49.49,0,0,1-.49-.44c0-.06-.13-1.45,1.8-2.35a4.3,4.3,0,0,1,2.2-.41,2.62,2.62,0,0,0,1.37-.23c.28-.15.36-.53.47-1.21A4,4,0,0,1,406.64,45a5.4,5.4,0,0,1,5.51.5.5.5,0,1,1-.62.78,4.42,4.42,0,0,0-4.47-.37,3.06,3.06,0,0,0-1.79,2.73c-.13.76-.26,1.55-1,1.93a3.5,3.5,0,0,1-1.84.34,3.27,3.27,0,0,0-1.75.32c-1.25.58-1.23,1.32-1.23,1.35a.51.51,0,0,1-.46.53Z" style="fill:#b2b2b2"></path></g><g id="freepik--Character--inject-2"><ellipse cx="400.8" cy="467.04" rx="60.23" ry="18.42" style="opacity:0.2"></ellipse><path d="M412.85,458.1s-3.36,5.53-6.49,10.34-3.85,8.42,1,9.38,12.51-.48,16.12-4.57,7.21-12.75,7.21-15.15S412.85,458.1,412.85,458.1Z" style="fill:#fff"></path><path d="M410.52,478.62a16.37,16.37,0,0,1-3.3-.31c-1.87-.37-3.08-1.17-3.59-2.37-.73-1.75,0-4.22,2.31-7.77,3.09-4.75,6.45-10.28,6.49-10.33a.5.5,0,0,1,.36-.24c2.65-.35,16-2.05,18-.28a1,1,0,0,1,.37.78c0,2.57-3.7,11.36-7.34,15.48C420.83,477,415.24,478.62,410.52,478.62Zm2.64-20.06c-.64,1.05-3.62,5.91-6.38,10.15-2.08,3.21-2.81,5.44-2.22,6.84.37.89,1.31,1.47,2.86,1.78,4.83,1,12.26-.58,15.64-4.41,3.67-4.15,7.09-12.7,7.09-14.82C429.68,457.19,421.92,457.39,413.16,458.56Z" style="fill:#263238"></path><path d="M414.78,474.7c-5.3,2.39-9.14.9-10.91-.17,0,1.65,1,2.81,3.45,3.29,4.81,1,12.51-.48,16.12-4.57s7.21-12.75,7.21-15.15c0-.27-.22-.47-.61-.63-1.23,2.3-3,5.55-3.72,6.88C425.12,466.52,422.24,471.33,414.78,474.7Z" style="fill:#fff"></path><path d="M410.52,478.62a16.37,16.37,0,0,1-3.3-.31c-2.54-.51-3.84-1.78-3.85-3.78a.48.48,0,0,1,.25-.43.47.47,0,0,1,.5,0c1.73,1,5.38,2.43,10.45.14h0c7.6-3.43,10.4-8.47,11.32-10.13.74-1.33,2.48-4.58,3.71-6.88a.5.5,0,0,1,.63-.22c.76.31.92.76.92,1.09,0,2.57-3.7,11.36-7.34,15.48C420.83,477,415.24,478.62,410.52,478.62Zm-6-3.18c.27.75,1,1.51,2.91,1.89,4.82,1,12.26-.58,15.64-4.41,3.54-4,6.86-12.12,7.08-14.58-1.19,2.23-2.7,5-3.38,6.26-1,1.72-3.88,7-11.78,10.55C410.26,477.29,406.64,476.44,404.51,475.44Z" style="fill:#263238"></path><path d="M377.5,313.17s-.73,34.28.24,45.11,3.36,39.2,6.49,53.15,8.18,30.31,8.18,30.31-3.37,3.13-3.37,4.57.48,7.46.72,8.66-5.29,5.53-9.38,7.22-7.21,1.68-7,3.85,5.77,3.6,11.54,4.09,16.12-2.89,19.24-3.37,4.82-1,5.3-3.13,0-11.3,0-12.75V437.17L409,371.5l-.73-53.27Z" style="fill:#263238"></path><path d="M386.17,470.67c-.44,0-.86,0-1.26-.05-5.61-.46-11.71-1.9-12-4.53-.21-1.92,1.62-2.49,3.95-3.21,1-.31,2.12-.65,3.33-1.15,4.29-1.77,9.05-5.79,9.08-6.68-.25-1.24-.73-7.26-.73-8.74s2.4-3.86,3.3-4.72c-.7-2.29-5.23-17.26-8.1-30-3-13.27-5.25-39-6.34-51.43l-.16-1.79c-1-10.73-.25-44.81-.24-45.16a.46.46,0,0,1,.18-.37.48.48,0,0,1,.4-.11l30.79,5.05a.5.5,0,0,1,.41.49l.73,53.28.48,65.67v13.71c0,.33,0,1.07.05,2,.12,3.4.32,9.1-.07,10.83-.56,2.54-2.62,3-5.7,3.51-.86.14-2.37.51-4.1.95C396,469.26,390.33,470.67,386.17,470.67ZM378,313.76c-.08,4.54-.63,34.57.25,44.47l.16,1.79c1,11.4,3.37,38.1,6.33,51.31,3.08,13.77,8.12,30.1,8.17,30.26a.52.52,0,0,1-.14.52c-1.33,1.24-3.21,3.36-3.21,4.2,0,1.41.48,7.38.71,8.56.35,1.74-6,6.25-9.68,7.78-1.25.52-2.4.87-3.41,1.19-2.5.77-3.37,1.13-3.26,2.14.18,1.59,4.84,3.13,11.09,3.65,4,.33,10.6-1.31,14.93-2.4,1.84-.46,3.29-.82,4.2-1,3.26-.5,4.49-1,4.88-2.74.36-1.6.15-7.44.05-10.58,0-1-.06-1.72-.06-2.06V437.17l-.48-65.66-.72-52.86Z" style="fill:#263238"></path><path d="M389.76,455c.24,1.2-5.29,5.53-9.38,7.22s-7.21,1.68-7,3.85,5.77,3.6,11.54,4.09,16.12-2.89,19.24-3.37,4.82-1,5.3-3.13a36.49,36.49,0,0,0,.19-5.91,36,36,0,0,1-8.61,1.34C396.26,459.06,389.76,455,389.76,455Z" style="fill:#fff"></path><path d="M386.17,470.67c-.44,0-.86,0-1.26-.05-5.61-.46-11.71-1.9-12-4.53-.21-1.92,1.62-2.49,3.95-3.21,1-.31,2.12-.65,3.33-1.15,4.29-1.77,9.05-5.79,9.08-6.68a.48.48,0,0,1,.21-.5.5.5,0,0,1,.55,0c.06,0,6.43,4,11,4a34.73,34.73,0,0,0,8.48-1.33.48.48,0,0,1,.43.09.49.49,0,0,1,.2.39,32.83,32.83,0,0,1-.21,6c-.56,2.54-2.62,3-5.7,3.51-.87.14-2.37.51-4.1.95C396,469.26,390.33,470.67,386.17,470.67Zm3.88-14.94c-1.13,2.06-6.27,5.6-9.48,6.92-1.25.52-2.4.87-3.41,1.19-2.5.77-3.37,1.13-3.26,2.14.18,1.59,4.84,3.13,11.09,3.65,4.05.34,10.6-1.31,14.93-2.4,1.84-.46,3.29-.82,4.2-1,3.26-.5,4.49-1,4.88-2.74a30,30,0,0,0,.19-5.16,34.71,34.71,0,0,1-8.12,1.2C396.94,459.56,391.74,456.72,390.05,455.73Z" style="fill:#263238"></path><path d="M409.49,463.63a14.88,14.88,0,0,0,.19-2.27c-1.62.57-3.82,1.39-6,2.27A67.45,67.45,0,0,1,385.19,468a21.62,21.62,0,0,1-11.76-2.46,1.59,1.59,0,0,0,0,.54c.24,2.16,5.77,3.6,11.54,4.09s16.12-2.89,19.24-3.37S409,465.8,409.49,463.63Z" style="fill:#fff"></path><path d="M386.17,470.67c-.44,0-.86,0-1.26-.05-5.61-.46-11.71-1.9-12-4.53a2,2,0,0,1,0-.69.5.5,0,0,1,.27-.35.48.48,0,0,1,.45,0,21.33,21.33,0,0,0,11.49,2.4,66.5,66.5,0,0,0,18.37-4.29c2.21-.91,4.48-1.74,6-2.28a.5.5,0,0,1,.46.06.54.54,0,0,1,.21.42,13.23,13.23,0,0,1-.21,2.37h0c-.56,2.54-2.62,3-5.7,3.51-.87.14-2.37.51-4.1.95C396,469.26,390.33,470.67,386.17,470.67ZM374,466.35c.79,1.45,5.21,2.8,11,3.28,4.05.34,10.6-1.31,14.93-2.4,1.84-.46,3.29-.82,4.2-1,3.26-.5,4.49-1,4.88-2.74h0a8.78,8.78,0,0,0,.15-1.44c-1.46.53-3.38,1.24-5.25,2a68.65,68.65,0,0,1-18.66,4.37A21.85,21.85,0,0,1,374,466.35Z" style="fill:#263238"></path><path d="M387.36,343.84l8.66,7.7s5.05,56.77,8.66,68.31,7.69,31.27,7.69,31.27a40.3,40.3,0,0,0-1.44,4.81,39.67,39.67,0,0,0,1.2,4.57s2.17,1.93,8.42,1.93,11.07-4.57,11.07-4.57V446.79c0-2.4-1.45-23.57-2.65-26.94s-1.92-8.18-1.68-10.1,3.12-55.8,3.12-55.8,1.45-21.29.73-25.86-1.93-12.51-1.93-12.51-28.86,1.68-38.73-1L380.62,312" style="fill:#263238"></path><path d="M420.55,462.93c-6.37,0-8.66-2-8.75-2.05a.43.43,0,0,1-.14-.23,34.38,34.38,0,0,1-1.23-4.72,32.67,32.67,0,0,1,1.43-4.84c-.37-1.77-4.26-20.2-7.66-31.09-3.51-11.24-8.28-64-8.66-68.22L387,344.22a.5.5,0,1,1,.66-.75l8.66,7.7a.5.5,0,0,1,.16.33c.06.56,5.09,56.84,8.64,68.2s7.67,31.12,7.71,31.32a.42.42,0,0,1,0,.27,36.34,36.34,0,0,0-1.41,4.64,35.65,35.65,0,0,0,1.13,4.28c.48.33,2.76,1.72,8,1.72s9.7-3.54,10.57-4.29V446.79c0-2.71-1.46-23.53-2.62-26.77-1.27-3.56-1.95-8.39-1.71-10.33s3.1-55.23,3.13-55.77c0-.22,1.43-21.29.72-25.75-.62-3.92-1.59-10.32-1.85-12.07-3.85.22-29.17,1.49-38.44-1l-9.86-2.64a.52.52,0,0,1-.35-.62.5.5,0,0,1,.61-.35l9.86,2.64c9.68,2.6,38.28,1,38.57.95a.5.5,0,0,1,.53.42s1.2,7.94,1.92,12.51-.66,25.1-.72,26c-.11,2.19-2.89,53.91-3.13,55.83s.45,6.5,1.66,9.88c1.28,3.56,2.68,24.95,2.68,27.1v11.07a.48.48,0,0,1-.16.36C431.76,458.41,426.93,462.93,420.55,462.93Z" style="fill:#263238"></path><path d="M409.06,435.07a.49.49,0,0,1-.48-.38s-.33-1.31-.84-3.5a.49.49,0,0,1,.37-.6.5.5,0,0,1,.6.37c.51,2.18.84,3.49.84,3.49a.5.5,0,0,1-.37.6Z" style="fill:#7a7a7a"></path><path d="M407.46,428.3a.51.51,0,0,1-.49-.39c-1.9-8.29-4.42-20.09-5.65-29.22-1-7.63-2.83-21.06-4.3-32.06a.5.5,0,0,1,1-.14c1.47,11,3.27,24.44,4.3,32.07,1.23,9.09,3.74,20.86,5.64,29.13a.5.5,0,0,1-.38.6Z" style="fill:#7a7a7a"></path><path d="M397.12,364.09a.51.51,0,0,1-.5-.44l-2-14.66-7.39-6.84a.5.5,0,0,1,0-.71.5.5,0,0,1,.71,0l7.52,7a.51.51,0,0,1,.15.3l2,14.84a.49.49,0,0,1-.43.56Z" style="fill:#7a7a7a"></path><path d="M429.66,318.53c-.27-1.74-.45-2.95-.45-2.95s-28.86,1.68-38.73-1-12.1-2.87-12.1-2.87v7.77a94,94,0,0,0,16.36,2.87C411.21,323.6,426.66,320,429.66,318.53Z" style="fill:#858585"></path><path d="M401.5,323.13c-2.23,0-4.51-.08-6.79-.25A95.36,95.36,0,0,1,378.23,320a.5.5,0,0,1-.35-.48v-7.77a.48.48,0,0,1,.17-.37.45.45,0,0,1,.38-.13c.09,0,2.4.26,12.18,2.88s38.28,1,38.57.95a.5.5,0,0,1,.53.42l.44,2.95a.5.5,0,0,1-.27.53C427.11,320.31,415.13,323.13,401.5,323.13Zm-22.62-4a96.22,96.22,0,0,0,15.9,2.74c15.57,1.15,30.54-2.08,34.33-3.66l-.32-2.13c-3.85.22-29.17,1.49-38.44-1-7.19-1.93-10.33-2.57-11.47-2.77Z" style="fill:#263238"></path><path d="M394.72,239.58s-18.18,5.64-20.07,11.6-11,35.44-11,35.44l13.48,2.51s-4.39,21.48.32,26.49,27.91,5.65,37.31,5,16-2.82,17.56-5.64,1.57-26.19,1.89-27.75,10.34-40.46,7.52-45.16S417,230.17,417,230.17l-21.2,10" style="fill:#B0BEC5"></path><path d="M407.87,321.33c-10.55,0-26.73-1.07-30.76-5.37-4.47-4.77-1.18-23.08-.54-26.43l-13-2.42a.51.51,0,0,1-.34-.23.53.53,0,0,1-.05-.41c.09-.29,9.12-29.55,11-35.44,1.94-6.13,19.64-11.69,20.4-11.93a.5.5,0,0,1,.29,1c-.18.05-18,5.63-19.74,11.27-1.72,5.45-9.56,30.87-10.81,34.9l12.93,2.41a.49.49,0,0,1,.33.21.51.51,0,0,1,.07.38c0,.21-4.28,21.28.19,26s28,5.46,36.92,4.86,15.67-2.71,17.16-5.39c1-1.87,1.38-14.58,1.57-21.4.1-3.74.16-5.71.26-6.2,0-.19.21-.89.47-2,7.85-32.09,8.2-41,7.11-42.8-2.56-4.27-22.17-10.92-24.31-11.64l-21,9.87a.48.48,0,0,1-.66-.24.5.5,0,0,1,.24-.66l21.2-10a.52.52,0,0,1,.37,0c.9.29,22.16,7.32,25,12.13,1.75,2.91-.54,17.16-7,43.56-.27,1.08-.44,1.77-.47,1.95-.09.43-.16,3-.24,6-.27,10-.63,19.94-1.7,21.87-1.7,3.06-8.41,5.26-18,5.9C413.15,321.25,410.71,321.33,407.87,321.33Z" style="fill:#263238"></path><path d="M411.64,256.77c-1.13,3.32-4.32,5.23-7.12,4.27s-4.15-4.41-3-7.73,4.32-5.22,7.12-4.27S412.77,253.46,411.64,256.77Z" style="fill:#fff"></path><path d="M376.29,280.6a.51.51,0,0,1-.5-.45,100.46,100.46,0,0,1-.24-14,31.84,31.84,0,0,1,.67-4.27.5.5,0,1,1,1,.22,28.17,28.17,0,0,0-.65,4.13,97.85,97.85,0,0,0,.24,13.86.5.5,0,0,1-.45.55Z" style="fill:#263238"></path><path d="M377.81,258.4a.39.39,0,0,1-.15,0,.51.51,0,0,1-.33-.63c1-3.24,2.1-5.73,2.11-5.75a.5.5,0,0,1,.66-.26.5.5,0,0,1,.26.66s-1.07,2.46-2.07,5.65A.5.5,0,0,1,377.81,258.4Z" style="fill:#263238"></path><path d="M392.55,302.82a.51.51,0,0,1-.4-.2c-1.14-1.53-1.83-2.51-1.83-2.51a.5.5,0,0,1,.81-.57s.69,1,1.82,2.48a.5.5,0,0,1-.1.7A.47.47,0,0,1,392.55,302.82Z" style="fill:#263238"></path><path d="M410.21,320.89a.41.41,0,0,1-.19,0c-4.51-1.86-11.12-9.52-15.87-15.61a.51.51,0,0,1,.09-.71.5.5,0,0,1,.7.09c3.83,4.91,10.93,13.43,15.46,15.31a.5.5,0,0,1,.27.65A.51.51,0,0,1,410.21,320.89Z" style="fill:#263238"></path><path d="M396.74,314.88a.54.54,0,0,1-.3-.1,23.08,23.08,0,0,1-2.89-2.69.5.5,0,0,1,.73-.68A22.47,22.47,0,0,0,397,314a.5.5,0,0,1-.3.9Z" style="fill:#263238"></path><path d="M392.41,310.54a.5.5,0,0,1-.38-.17,111.24,111.24,0,0,1-7.5-10.28.5.5,0,1,1,.84-.53,113.92,113.92,0,0,0,7.42,10.16.51.51,0,0,1-.06.71A.48.48,0,0,1,392.41,310.54Z" style="fill:#263238"></path><path d="M418.11,230a25,25,0,0,1-5.77,6.18c-3.18,2.57-9.21,7.67-13.08,9.28-1.23.53-2.25.69-2.88.3-2.49-1.54-.73-5.29-.6-5.57v0s-4.2.8-5.59.2-1.79-4-4-7.57a94.59,94.59,0,0,1-5-10.57l-1.2-8.58L408.15,209l1.79,9.37Z" style="fill:#fff"></path><path d="M397.25,246.44a2.16,2.16,0,0,1-1.13-.29c-1.84-1.14-1.83-3.39-1.13-5.37-1.37.21-3.87.49-5,0-.95-.41-1.45-1.65-2.13-3.37a27.76,27.76,0,0,0-2.08-4.4,95,95,0,0,1-5-10.64l0-.12-1.19-8.58a.49.49,0,0,1,.41-.56l28.12-4.58a.49.49,0,0,1,.57.4l1.77,9.26,8.11,11.47a.52.52,0,0,1,0,.54,25.55,25.55,0,0,1-5.9,6.32l-1.11.91c-3.42,2.78-8.57,7-12.09,8.44A5.77,5.77,0,0,1,397.25,246.44Zm-1.46-6.81a.5.5,0,0,1,.44.74c-.28.6-1.58,3.69.42,4.92.43.27,1.29.15,2.42-.33,3.38-1.41,8.47-5.55,11.83-8.3l1.12-.91a26.38,26.38,0,0,0,5.49-5.77l-8-11.29a.5.5,0,0,1-.08-.2l-1.7-8.89L380.59,214l1.12,8a93.35,93.35,0,0,0,4.93,10.44,27.54,27.54,0,0,1,2.16,4.55c.55,1.38,1,2.57,1.6,2.82,1,.45,4.17,0,5.3-.23Z" style="fill:#263238"></path><path d="M378.84,220.39s.2,2.4,1.79,3.19a21.31,21.31,0,0,0,5.19,1.2s.59-2.19,1.79-2.19,2.79,2,3.79,2,6-.2,7.38-2a13.71,13.71,0,0,0,1.79-2.79l6-4.39v-1.8l-6.38,1.8s-12.36,1.79-17.54,2l-5.19.2Z" style="fill:#263238"></path><path d="M385.82,225.28h-.06a21.44,21.44,0,0,1-5.35-1.25c-1.65-.82-2-3-2.06-3.49L377,217.83a.51.51,0,0,1,.43-.73l5.19-.2c5.09-.19,17.37-2,17.49-2l6.32-1.78a.51.51,0,0,1,.63.48v1.8a.48.48,0,0,1-.2.4L401,220.12a15.08,15.08,0,0,1-1.8,2.77c-1.68,2.17-7.52,2.19-7.77,2.19a4,4,0,0,1-2-1,4.14,4.14,0,0,0-1.76-1c-.61,0-1.15,1.23-1.31,1.82A.5.5,0,0,1,385.82,225.28Zm-7.59-7.21,1,2.1a.41.41,0,0,1,.05.18s.2,2.13,1.52,2.79a19,19,0,0,0,4.62,1.09c.27-.74.94-2.14,2.14-2.14a4.51,4.51,0,0,1,2.36,1.16,4,4,0,0,0,1.43.83c1.45,0,5.84-.33,7-1.8a14,14,0,0,0,1.73-2.67.46.46,0,0,1,.17-.22l5.77-4.24v-.88l-5.74,1.62c-.19,0-12.51,1.81-17.67,2Z" style="fill:#263238"></path><path d="M378.24,212.62s-1.8-7.58-.6-10.77,11-7.78,17.35-8a21.8,21.8,0,0,1,12.76,4.19c1,.8,2.39,12.76,2.39,12.76s-5,2-13.76,2.39A139.52,139.52,0,0,1,378.24,212.62Z" style="fill:#B0BEC5"></path><path d="M392,213.81c-7.22,0-13.77-.69-13.84-.7a.49.49,0,0,1-.44-.38c-.07-.31-1.81-7.76-.58-11.06s11.28-8.09,17.8-8.3a22.13,22.13,0,0,1,13.09,4.3c1.05.84,2.15,9.44,2.58,13.09a.5.5,0,0,1-.31.53c-.21.08-5.17,2-13.92,2.42C395,213.78,393.48,213.81,392,213.81Zm-13.38-1.65a141.34,141.34,0,0,0,17.71.56,49.26,49.26,0,0,0,13.24-2.23c-.66-5.52-1.63-11.44-2.18-12.05,0,0-5.57-4.28-12.42-4.07-6.44.2-15.85,4.87-16.89,7.65S378.32,210.65,378.65,212.16Z" style="fill:#263238"></path><path d="M378.24,212.62s-8.58,5-6.78,6.38,17.35.8,23.13-.8a17.49,17.49,0,0,0,8.77-5.58S382.43,211.62,378.24,212.62Z" style="fill:#B0BEC5"></path><path d="M378.48,220.29c-3.6,0-6.52-.27-7.33-.9a1.1,1.1,0,0,1-.44-1c.14-2,6.09-5.55,7.28-6.25l.13-.05c4.21-1,24.41,0,25.27,0a.49.49,0,0,1,.42.28.51.51,0,0,1-.05.52,17.82,17.82,0,0,1-9,5.76C391.23,219.65,384.05,220.29,378.48,220.29Zm-.06-7.2c-3.25,1.9-6.64,4.43-6.71,5.41,0,0,0,.06.06.1,1.48,1.16,16.64.79,22.69-.88a17.6,17.6,0,0,0,7.84-4.65C398.06,212.89,382.1,212.27,378.42,213.09Z" style="fill:#263238"></path><path d="M406.35,218.2s-.4-6.78,2.4-7.38,3,5.39,2.19,7.38a5.39,5.39,0,0,1-1.79,2.59l-.8,5" style="fill:#fff"></path><path d="M408.35,226.28h-.08a.51.51,0,0,1-.42-.57l.8-5a.5.5,0,0,1,.24-.35,5.17,5.17,0,0,0,1.59-2.35c.58-1.45.53-5-.53-6.31a1.06,1.06,0,0,0-1.1-.39c-1.93.42-2.09,5.21-2,6.86a.5.5,0,0,1-.47.53.52.52,0,0,1-.53-.47c0-.74-.33-7.23,2.79-7.9a2,2,0,0,1,2.07.73c1.45,1.71,1.31,5.77.69,7.33a6.6,6.6,0,0,1-1.79,2.68l-.77,4.79A.5.5,0,0,1,408.35,226.28Z" style="fill:#263238"></path><path d="M387.81,231.66a.57.57,0,0,1-.28-.08.52.52,0,0,1-.21-.33l-1.2-7a.5.5,0,0,1,.41-.58.51.51,0,0,1,.58.41l1.1,6.45,2.87-.67a.5.5,0,1,1,.23,1l-3.39.8Z" style="fill:#263238"></path><path d="M389.6,234.25a.5.5,0,0,1-.09-1l3.19-.6a.5.5,0,1,1,.19,1l-3.19.59Z" style="fill:#263238"></path><path d="M403.76,233.15l-4.5,12.27c-1.23.53-2.25.69-2.88.3-2.49-1.54-.73-5.29-.6-5.57v0Z" style="fill:#263238"></path><path d="M397.25,246.44a2.16,2.16,0,0,1-1.13-.29c-2.1-1.31-1.79-4.06-.8-6.2a.55.55,0,0,1,.14-.19l8-7a.48.48,0,0,1,.61,0,.49.49,0,0,1,.19.58l-4.5,12.27a.51.51,0,0,1-.27.29A5.86,5.86,0,0,1,397.25,246.44Zm-1.05-6c-.34.75-1.48,3.66.45,4.85a2.76,2.76,0,0,0,2.22-.25l3.75-10.22Z" style="fill:#263238"></path><path d="M363.15,276.41s-1.89,2.13-3.07,2.37-8.06-1.66-8.77-.71-4.5,7.34-3.55,8.76,4.73,4.27,6.16,4.51,5.92-2.61,5.92-2.61l2.13-2.84L361,283a9.24,9.24,0,0,0,4-3.31C366.23,277.6,366.23,274,363.15,276.41Z" style="fill:#fff"></path><path d="M354.08,291.85l-.25,0c-1.58-.27-5.5-3.24-6.49-4.72-1.29-1.94,3.52-9.27,3.57-9.34.56-.74,2.33-.52,5.95.11a17.56,17.56,0,0,0,3.12.41,8.13,8.13,0,0,0,2.8-2.21l.07-.06c1.54-1.19,2.4-1,2.85-.58,1,.87.53,3.19-.21,4.53a9.27,9.27,0,0,1-3.85,3.34l.81,2.42a.51.51,0,0,1-.08.46L360.24,289a.41.41,0,0,1-.14.12C359.37,289.62,355.75,291.85,354.08,291.85Zm-1.75-13.56a1.19,1.19,0,0,0-.64.11c-1.08,1.43-4.16,7.19-3.52,8.16.91,1.36,4.61,4.08,5.83,4.28.83.14,3.68-1.35,5.49-2.48l1.92-2.56-.86-2.6a.5.5,0,0,1,.28-.62,8.75,8.75,0,0,0,3.78-3.09c.73-1.32.85-2.94.44-3.29-.17-.15-.68-.08-1.55.58-.32.36-2.07,2.24-3.33,2.49a13.24,13.24,0,0,1-3.48-.4A32.53,32.53,0,0,0,352.33,278.29Z" style="fill:#263238"></path><polygon points="372.93 285.15 353.2 280.82 349.83 287.32 373.65 293.09 372.93 285.15" style="fill:#263238"></polygon><path d="M373.65,293.59h-.12l-23.82-5.78a.49.49,0,0,1-.33-.28.47.47,0,0,1,0-.43l3.37-6.5a.5.5,0,0,1,.55-.26L373,284.66a.5.5,0,0,1,.39.45l.72,7.93a.48.48,0,0,1-.17.43A.49.49,0,0,1,373.65,293.59ZM350.57,287l22.51,5.46-.62-6.88-19-4.17Z" style="fill:#263238"></path><polygon points="338.9 259.31 354.88 276.25 371 279.38 359.82 263.64 338.9 259.31" style="fill:#858585"></polygon><path d="M371,279.88h-.1l-16.11-3.13a.49.49,0,0,1-.27-.15l-16-16.94a.48.48,0,0,1-.07-.58.5.5,0,0,1,.54-.25l20.93,4.33a.52.52,0,0,1,.3.2l11.18,15.74a.5.5,0,0,1,0,.56A.5.5,0,0,1,371,279.88Zm-15.86-4.09,14.73,2.86-10.34-14.56-19.18-4Z" style="fill:#263238"></path><polygon points="360.42 276.73 364.51 283.47 367.39 284.19 362.82 277.45 360.42 276.73" style="fill:#263238"></polygon><path d="M367.39,284.69l-.12,0-2.89-.72a.51.51,0,0,1-.3-.22L360,277a.48.48,0,0,1,0-.56.49.49,0,0,1,.54-.18L363,277a.52.52,0,0,1,.27.19l4.57,6.74a.51.51,0,0,1,0,.57A.51.51,0,0,1,367.39,284.69ZM364.83,283l1.41.36-3.73-5.51-1-.3Z" style="fill:#263238"></path><path d="M351,284.93a.52.52,0,0,1-.32-.11l-10.58-8.66a.5.5,0,0,1-.07-.71.5.5,0,0,1,.7-.07L351.35,284a.5.5,0,0,1-.31.89Z" style="fill:#263238"></path><path d="M362.32,283.74a.46.46,0,0,1-.29-.1l-5.28-3.86a.5.5,0,0,1,.59-.81l5.28,3.86a.5.5,0,0,1,.1.7A.48.48,0,0,1,362.32,283.74Z" style="fill:#263238"></path><path d="M370.52,289.74a.49.49,0,0,1-.3-.1l-8.19-6a.49.49,0,0,1-.11-.7.51.51,0,0,1,.7-.11l8.19,6a.5.5,0,0,1-.29.9Z" style="fill:#fff"></path><path d="M423.2,247.15s-4.81,7-4.57,8.41,1.92,19.25,1.92,19.25-3.13-1.2-3.13.24a20.91,20.91,0,0,0,.49,3.61l-28.39,5,.24,8.18s19.49,3.36,28.15,4.33,20.2,2.16,21.88.48,2.65-10.83,2.65-13.95.72-30.31.72-36.09-3.61-6.25-9.38-6.49" style="fill:#B0BEC5"></path><path d="M434.69,298c-3.83,0-9.51-.51-16.84-1.33-8.57-.95-28-4.3-28.17-4.33a.5.5,0,0,1-.42-.48l-.24-8.18a.5.5,0,0,1,.41-.5l27.88-5a19.43,19.43,0,0,1-.39-3.2,1.11,1.11,0,0,1,.48-.95,3.48,3.48,0,0,1,2.58,0c-.32-3.41-1.64-17.2-1.85-18.44-.25-1.53,3.5-7.11,4.66-8.79a.5.5,0,1,1,.82.57c-2.26,3.28-4.62,7.28-4.49,8,.24,1.45,1.86,18.55,1.93,19.28a.51.51,0,0,1-.2.45.48.48,0,0,1-.48.06,4.1,4.1,0,0,0-2.4-.35s-.05,0-.05.13a21.31,21.31,0,0,0,.47,3.5.47.47,0,0,1-.07.38.48.48,0,0,1-.33.22l-27.95,5,.21,7.34c2.83.49,19.85,3.39,27.71,4.26,6.46.72,19.9,2.21,21.48.62,1.42-1.42,2.5-9.89,2.5-13.59,0-1.33.13-7,.28-13.5.21-9,.44-19.27.44-22.58,0-5.1-2.71-5.74-8.9-6a.5.5,0,0,1-.48-.52.48.48,0,0,1,.52-.48c6,.25,9.86.87,9.86,7,0,3.33-.23,13.57-.44,22.6-.15,6.52-.28,12.16-.28,13.48,0,2.68-.87,12.38-2.79,14.3C439.45,297.75,437.61,298,434.69,298Z" style="fill:#263238"></path><path d="M389.52,283.71l-8.9-1.93s-3.37-1.68-4.33-1.68a20.06,20.06,0,0,1-5.29-.72c-1-.48-2.65-3.13-3.13-.72s.48,3.12,1.93,3.6,3.12,1,3.12,1.69-5.29,4.09-5.77,6,1.69,2.89,1.69,2.89H371a6.48,6.48,0,0,0,3.13,1.68c1.68.24,4.57.48,5.77-.48s3.85-3.13,3.85-3.13l6,1Z" style="fill:#fff"></path><path d="M376.83,295.25a20.45,20.45,0,0,1-2.77-.22,6.76,6.76,0,0,1-3.26-1.68h-2a.78.78,0,0,1-.21,0,3.14,3.14,0,0,1-2-3.47c.32-1.3,2.26-2.92,4-4.35a18.45,18.45,0,0,0,1.76-1.58,7.82,7.82,0,0,0-2.37-1l-.4-.13c-1.51-.5-2.82-1.36-2.26-4.18.06-.28.23-1.13.9-1.35s1.45.42,2.14,1.06a4.69,4.69,0,0,0,.8.66,20.31,20.31,0,0,0,5.07.67c1,0,3.81,1.36,4.5,1.71l8.84,1.91a.49.49,0,0,1,.39.47l.24,8.18a.49.49,0,0,1-.17.39.5.5,0,0,1-.41.12l-5.79-.93c-.61.5-2.66,2.18-3.68,3A5.58,5.58,0,0,1,376.83,295.25Zm-7.88-2.9H371a.5.5,0,0,1,.35.14A6,6,0,0,0,374.2,294c2.65.37,4.62.24,5.39-.38,1.2-1,3.84-3.12,3.84-3.12a.52.52,0,0,1,.4-.11l5.42.87-.22-7.19-8.51-1.84-.12,0a18.46,18.46,0,0,0-4.11-1.63c-.7,0-4.37-.2-5.51-.77a5.16,5.16,0,0,1-1-.83c-.3-.27-.91-.84-1.14-.84h0s-.13.09-.23.59c-.43,2.18.43,2.65,1.6,3l.39.13c1.65.54,3.07,1,3.07,2,0,.5-.54,1-2.13,2.31-1.36,1.13-3.41,2.84-3.65,3.82C367.31,291.39,368.6,292.16,369,292.35Z" style="fill:#263238"></path><path d="M434.26,286.61a.5.5,0,0,1-.34-.13,18.09,18.09,0,0,0-3.5-2.27.5.5,0,0,1-.21-.68.5.5,0,0,1,.68-.2,18.22,18.22,0,0,1,3.71,2.42.49.49,0,0,1,0,.7A.49.49,0,0,1,434.26,286.61Z" style="fill:#263238"></path><path d="M428.5,283.18a.42.42,0,0,1-.22-.05c-4.14-2-8.82-3.75-8.87-3.76a.51.51,0,0,1-.29-.65.5.5,0,0,1,.65-.29s4.76,1.79,8.94,3.8a.5.5,0,0,1-.21.95Z" style="fill:#263238"></path><path d="M432.34,278.19a.5.5,0,0,1-.17,0c-3.29-1.18-11.63-2.86-11.72-2.87a.5.5,0,0,1,.2-1c.35.07,8.49,1.7,11.86,2.9a.5.5,0,0,1,.3.64A.49.49,0,0,1,432.34,278.19Z" style="fill:#263238"></path><path d="M429.06,317.06l-1-8a3.67,3.67,0,0,0-4.42-.33c-2.61,1.48-6.21,4.09-8.5,3.93s-3.27-1.47-3.93,0,1.15,19.3,1.15,19.3l.16,4.91h4.74l-.32-11,4.09-1.31V319Z" style="fill:#263238"></path><path d="M417.28,337.35h-4.74a.5.5,0,0,1-.5-.48l-.16-4.91c-.3-3-1.78-18-1.11-19.52.6-1.34,1.6-1,2.49-.73a7.38,7.38,0,0,0,1.93.43c1.68.14,4.17-1.42,6.4-2.77.64-.39,1.26-.77,1.83-1.09a4.16,4.16,0,0,1,5,.41.54.54,0,0,1,.15.29l1,8a.49.49,0,0,1-.38.54l-7.63,1.87v5.17a.5.5,0,0,1-.35.48l-3.73,1.19.31,10.59a.46.46,0,0,1-.14.36A.48.48,0,0,1,417.28,337.35Zm-4.26-1h3.75l-.31-10.44a.5.5,0,0,1,.34-.5l3.75-1.19V319a.48.48,0,0,1,.38-.48l7.58-1.86-.9-7.39a3.21,3.21,0,0,0-3.7-.14c-.56.32-1.17.69-1.8,1.07-2.36,1.43-5,3.06-7,2.92a8.48,8.48,0,0,1-2.17-.48c-1-.32-1.05-.29-1.26.18-.39.93.32,10.51,1.18,19.05Z" style="fill:#263238"></path><polygon points="409.92 320.98 423.01 319.67 421.86 334.56 412.21 334.89 409.92 320.98" style="fill:#858585"></polygon><path d="M412.21,335.39a.5.5,0,0,1-.49-.42l-2.29-13.91a.48.48,0,0,1,.1-.38.47.47,0,0,1,.34-.19L423,319.18a.47.47,0,0,1,.4.14.52.52,0,0,1,.15.39l-1.15,14.89a.5.5,0,0,1-.48.46l-9.65.33Zm-1.71-14,2.13,12.94,8.77-.29,1.06-13.85Z" style="fill:#263238"></path></g><g id="freepik--Drone--inject-2"><path d="M91.71,59.6v2.83l-1.27.24a3,3,0,0,0-2.36,3.85h0a3.05,3.05,0,0,0,2.66,2.19l10.33.9a28.23,28.23,0,0,0,5.67,1.09h9.36V63.3L94.54,58.51Z" style="fill:#263238"></path><path d="M116.1,71.2h-9.36a28,28,0,0,1-5.81-1.11L90.7,69.21a3.53,3.53,0,0,1-3.1-2.55,3.55,3.55,0,0,1,2.74-4.48l.87-.17V59.6a.5.5,0,0,1,.32-.47L94.36,58a.57.57,0,0,1,.29,0l21.56,4.79a.49.49,0,0,1,.39.49v7.4A.5.5,0,0,1,116.1,71.2ZM92.21,59.94v2.49a.5.5,0,0,1-.4.49l-1.28.24a2.53,2.53,0,0,0-1.7,1.18,2.48,2.48,0,0,0-.27,2,2.52,2.52,0,0,0,2.22,1.83l10.34.91a29.88,29.88,0,0,0,5.62,1.08h8.86V63.7L94.58,59Zm-.5,2.49h0Z" style="fill:#263238"></path><path d="M86.59,39.35h0a3,3,0,0,0-3,3v5h6.09v-5A3,3,0,0,0,86.59,39.35Z" style="fill:#fff"></path><path d="M89.64,47.9H83.55a.5.5,0,0,1-.5-.5v-5a3.55,3.55,0,0,1,7.09,0v5A.5.5,0,0,1,89.64,47.9Zm-5.59-1h5.09V42.39a2.55,2.55,0,0,0-5.09,0Z" style="fill:#263238"></path><path d="M82.81,46.53h7.57a2.1,2.1,0,0,1,2.1,2.1v5.52a0,0,0,0,1,0,0H80.71a0,0,0,0,1,0,0V48.63A2.1,2.1,0,0,1,82.81,46.53Z" style="fill:#263238"></path><path d="M92.47,54.65H80.71a.5.5,0,0,1-.5-.5V48.63a2.61,2.61,0,0,1,2.6-2.6h7.57A2.6,2.6,0,0,1,93,48.63v5.52A.5.5,0,0,1,92.47,54.65Zm-11.26-1H92v-5A1.6,1.6,0,0,0,90.38,47H82.81a1.6,1.6,0,0,0-1.6,1.6Z" style="fill:#263238"></path><path d="M195.32,47.18c-19.12,0-47.58-1.35-47.58-5.07S176.2,37,195.32,37s47.58,1.35,47.58,5.07S214.45,47.18,195.32,47.18Zm0-9.14c-29.28,0-46.13,2.41-46.58,4.08.45,1.65,17.3,4.06,46.58,4.06s46.08-2.4,46.58-4.07C241.4,40.44,224.56,38,195.32,38Zm46.58,4.08h0Z" style="fill:#263238"></path><path d="M221.59,45.15a.5.5,0,0,1-.05-1c9.71-.95,10.38-2,10.4-2.1-.65-1.17-13.22-3-35.14-3.05a.5.5,0,0,1-.5-.5.5.5,0,0,1,.5-.5h0c1.48,0,36.13.18,36.13,4.1,0,.63,0,1.94-11.29,3Z" style="fill:#263238"></path><path d="M165.84,40.42a.5.5,0,0,1-.07-1A257.79,257.79,0,0,1,195.32,38a.5.5,0,0,1,0,1,255.62,255.62,0,0,0-29.42,1.41Z" style="fill:#263238"></path><path d="M195.32,46.21c-13,0-37.61-.86-37.61-4.1,0-.8.82-1.65,6.74-2.5A.5.5,0,0,1,165,40a.51.51,0,0,1-.42.57c-5.35.77-5.86,1.48-5.9,1.56.66,1.19,14.08,3.05,36.62,3.05,8.52,0,16.83-.28,23.41-.81a.5.5,0,0,1,.54.46.5.5,0,0,1-.46.54C212.21,45.92,203.87,46.21,195.32,46.21Z" style="fill:#263238"></path><path d="M195.32,44.69c-3.21,0-6.3-.07-9.2-.2a.5.5,0,0,1-.47-.53.49.49,0,0,1,.52-.47c2.88.13,6,.2,9.15.2,11.75,0,19.19-.87,20.71-1.57-.78-.35-3.36-.9-9.35-1.27a.49.49,0,0,1-.46-.53.5.5,0,0,1,.53-.47c10.47.64,10.47,1.74,10.47,2.26C217.22,44.56,199,44.69,195.32,44.69Zm21-2.43h0Z" style="fill:#263238"></path><path d="M184.28,44.39h0c-10.83-.64-10.83-1.75-10.83-2.28,0-2.45,18.25-2.58,21.9-2.58,3.47,0,6.77.08,9.83.23a.5.5,0,0,1-.05,1c-3-.15-6.38-.23-9.78-.23-11.74,0-19.18.87-20.7,1.58.79.34,3.46.92,9.69,1.28a.51.51,0,0,1,.47.53A.5.5,0,0,1,184.28,44.39Z" style="fill:#263238"></path><path d="M86.23,47.18c-19.13,0-47.58-1.35-47.58-5.07S67.1,37,86.23,37s47.58,1.35,47.58,5.07S105.36,47.18,86.23,47.18Zm0-9.14c-29.29,0-46.13,2.41-46.58,4.08.45,1.65,17.29,4.06,46.58,4.06s46.08-2.4,46.58-4.07C132.31,40.44,115.47,38,86.23,38Zm46.58,4.08h0Z" style="fill:#263238"></path><path d="M112.5,45.15a.5.5,0,0,1,0-1c9.7-.95,10.38-2,10.4-2.1-.65-1.17-13.22-3-35.14-3.05a.5.5,0,0,1,0-1h0c1.48,0,36.13.18,36.13,4.1,0,.63,0,1.94-11.29,3Z" style="fill:#263238"></path><path d="M56.74,40.42a.5.5,0,0,1-.06-1A257.79,257.79,0,0,1,86.23,38a.5.5,0,0,1,0,1,255.62,255.62,0,0,0-29.42,1.41Z" style="fill:#263238"></path><path d="M86.23,46.21c-13,0-37.61-.86-37.61-4.1,0-.8.82-1.65,6.74-2.5a.5.5,0,1,1,.14,1c-5.34.77-5.85,1.48-5.89,1.56.66,1.19,14.08,3.05,36.62,3.05,8.52,0,16.83-.28,23.41-.81a.49.49,0,0,1,.53.46.49.49,0,0,1-.45.54C103.11,45.92,94.77,46.21,86.23,46.21Z" style="fill:#263238"></path><path d="M86.23,44.69c-3.21,0-6.31-.07-9.2-.2a.51.51,0,0,1-.48-.53.52.52,0,0,1,.53-.47c2.88.13,6,.2,9.15.2,11.75,0,19.18-.87,20.7-1.57-.78-.35-3.36-.9-9.34-1.27a.51.51,0,0,1-.47-.53.52.52,0,0,1,.53-.47c10.48.64,10.48,1.74,10.48,2.26C108.13,44.56,89.89,44.69,86.23,44.69Zm21-2.43h0Z" style="fill:#263238"></path><path d="M75.18,44.39h0c-10.82-.64-10.82-1.75-10.82-2.28,0-2.45,18.24-2.58,21.9-2.58,3.46,0,6.77.08,9.83.23a.51.51,0,0,1,.47.53.49.49,0,0,1-.52.47c-3-.15-6.38-.23-9.78-.23-11.75,0-19.18.87-20.7,1.58.79.34,3.46.92,9.68,1.28a.5.5,0,0,1,.47.53A.49.49,0,0,1,75.18,44.39Z" style="fill:#263238"></path><path d="M191.39,59.6v2.83l1.27.24A3,3,0,0,1,195,66.52h0a3.05,3.05,0,0,1-2.66,2.19l-10.33.9a28.23,28.23,0,0,1-5.67,1.09H167V63.3l21.56-4.79Z" style="fill:#263238"></path><path d="M176.36,71.2H167a.5.5,0,0,1-.5-.5V63.3a.49.49,0,0,1,.39-.49L188.45,58a.57.57,0,0,1,.29,0l2.83,1.09a.5.5,0,0,1,.32.47V62l.87.17a3.55,3.55,0,0,1-.36,7l-10.33.9A26.86,26.86,0,0,1,176.36,71.2Zm-8.86-1h8.86a28,28,0,0,0,5.53-1.07l10.43-.92a2.52,2.52,0,0,0,2.22-1.83,2.55,2.55,0,0,0-2-3.22l-1.27-.24a.5.5,0,0,1-.41-.49V59.94L188.52,59l-21,4.67Z" style="fill:#263238"></path><path d="M170.92,66.13l2,10.45s3.48,6.53,3.7,11.76.44,33.54.44,33.54a2.64,2.64,0,0,1-1.09,1.74c-.87.43-5.88,2.39-6.32,1.52s-1.08-2.18-1.08-6.75-.44-25.48-.44-27.65-6.31-16.12-6.31-16.12l-5.67-.43s1.31-5.23,3.27-7.84S170.92,66.13,170.92,66.13Z" style="fill:#B0BEC5"></path><path d="M170.24,125.86c-.57,0-.91-.16-1.07-.49-.46-.91-1.14-2.29-1.14-7,0-2.7-.16-11.18-.28-18-.09-4.7-.16-8.76-.16-9.65,0-1.5-3.63-10.07-6.15-15.64l-5.36-.41a.52.52,0,0,1-.37-.21.47.47,0,0,1-.08-.41c.05-.22,1.35-5.36,3.35-8s11.05-.66,12.06-.4a.48.48,0,0,1,.37.39l2,10.38c.39.75,3.51,6.85,3.72,11.9s.44,33.27.44,33.55a3.06,3.06,0,0,1-1.37,2.19,26.9,26.9,0,0,1-3.39,1.29A9.49,9.49,0,0,1,170.24,125.86Zm-.21-1c.74.23,4.48-1.08,5.68-1.68a2.07,2.07,0,0,0,.81-1.38c0-.19-.22-28.27-.44-33.43s-3.61-11.48-3.64-11.54a.88.88,0,0,1-.05-.15l-1.9-10.13c-2.79-.66-9.32-1.74-10.71.11s-2.63,5.67-3,7.08l5.06.39a.5.5,0,0,1,.42.3c.65,1.43,6.36,14.09,6.36,16.32,0,.88.07,4.94.16,9.63.12,6.82.28,15.31.28,18C169,122.73,169.62,124,170,124.85Z" style="fill:#263238"></path><path d="M170.48,120.63a.5.5,0,0,1-.48-.39.49.49,0,0,1,.38-.59l1.56-.35c-.06-2.63-.35-17.23-.42-25.41a.5.5,0,0,1,1,0c.07,9,.42,25.63.43,25.8a.51.51,0,0,1-.4.5l-2,.43Z" style="fill:#263238"></path><path d="M172,91.67a.5.5,0,0,1-.5-.5c0-7-5.4-17.72-6.34-19.53h-3.35a.5.5,0,0,1-.5-.5.5.5,0,0,1,.5-.5h3.66a.51.51,0,0,1,.44.26c.27.5,6.59,12.4,6.59,20.27A.5.5,0,0,1,172,91.67Z" style="fill:#263238"></path><path d="M160.12,71.64H157a.51.51,0,0,1-.5-.5.5.5,0,0,1,.5-.5h3.14a.5.5,0,0,1,.5.5A.5.5,0,0,1,160.12,71.64Z" style="fill:#263238"></path><path d="M195.15,39.35h0a3,3,0,0,0-3.05,3v5h6.09v-5A3,3,0,0,0,195.15,39.35Z" style="fill:#fff"></path><path d="M198.19,47.9H192.1a.5.5,0,0,1-.5-.5v-5a3.55,3.55,0,0,1,7.09,0v5A.5.5,0,0,1,198.19,47.9Zm-5.59-1h5.09V42.39a2.55,2.55,0,0,0-5.09,0Z" style="fill:#263238"></path><path d="M191.36,46.53h7.57a2.1,2.1,0,0,1,2.1,2.1v5.52a0,0,0,0,1,0,0H189.27a0,0,0,0,1,0,0V48.63A2.1,2.1,0,0,1,191.36,46.53Z" style="fill:#263238"></path><path d="M201,54.65H189.27a.5.5,0,0,1-.5-.5V48.63a2.6,2.6,0,0,1,2.59-2.6h7.57a2.61,2.61,0,0,1,2.6,2.6v5.52A.5.5,0,0,1,201,54.65Zm-11.26-1h10.76v-5a1.6,1.6,0,0,0-1.6-1.6h-7.57a1.6,1.6,0,0,0-1.59,1.6Z" style="fill:#263238"></path><path d="M112.18,66.13l-2,10.45s-3.48,6.53-3.7,11.76-.44,33.54-.44,33.54a2.64,2.64,0,0,0,1.09,1.74c.87.43,5.88,2.39,6.32,1.52s1.09-2.18,1.09-6.75.43-25.48.43-27.65,6.32-16.12,6.32-16.12l5.66-.43s-1.31-5.23-3.27-7.84S112.18,66.13,112.18,66.13Z" style="fill:#B0BEC5"></path><path d="M112.86,125.86a9.37,9.37,0,0,1-2.51-.51,26.58,26.58,0,0,1-3.4-1.29,3,3,0,0,1-1.36-2.1c0-.37.21-28.46.43-33.64s3.33-11.15,3.72-11.9l2-10.38a.49.49,0,0,1,.37-.39c1-.26,10-2.4,12.06.4s3.3,7.8,3.35,8a.47.47,0,0,1-.08.41.52.52,0,0,1-.36.21l-5.37.41c-2.52,5.57-6.15,14.14-6.15,15.64,0,.89-.07,5-.16,9.65-.12,6.82-.27,15.3-.27,18,0,4.69-.69,6.07-1.14,7C113.77,125.7,113.43,125.86,112.86,125.86Zm-.25-59.32-1.9,10.13a.44.44,0,0,1,0,.15c0,.06-3.43,6.49-3.64,11.54s-.43,33.24-.44,33.52a2.09,2.09,0,0,0,.82,1.29c1.19.6,4.94,1.91,5.67,1.68.42-.83,1-2.13,1-6.46,0-2.71.15-11.2.27-18,.09-4.69.16-8.75.16-9.63,0-2.23,5.71-14.89,6.36-16.32a.53.53,0,0,1,.42-.3l5.06-.39c-.4-1.41-1.53-5.08-3-7.08S115.4,65.88,112.61,66.54Zm-2.39,10h0Z" style="fill:#263238"></path><path d="M112.62,120.63h-.11l-2-.43a.5.5,0,0,1-.39-.5l.09-4.7a.51.51,0,0,1,.5-.49h0a.5.5,0,0,1,.49.51l-.09,4.29,1.56.35a.5.5,0,0,1-.1,1Z" style="fill:#263238"></path><path d="M110.79,113.5h0a.5.5,0,0,1-.49-.51c.14-7.29.3-17,.3-21.82,0-5.46,3.12-13,5-17a.5.5,0,1,1,.9.42c-1.82,3.92-4.88,11.3-4.88,16.56,0,4.84-.16,14.55-.3,21.84A.51.51,0,0,1,110.79,113.5Z" style="fill:#263238"></path><path d="M116.59,73.7a.54.54,0,0,1-.22,0,.5.5,0,0,1-.23-.67c.62-1.29,1-2.08,1-2.08a.51.51,0,0,1,.44-.26h8.5a.5.5,0,0,1,.5.5.51.51,0,0,1-.5.5h-8.19c-.17.33-.49.94-.89,1.78A.5.5,0,0,1,116.59,73.7Z" style="fill:#263238"></path><rect x="140.92" y="92.26" width="2.18" height="8.71" style="fill:#fff"></rect><path d="M143.1,101.47h-2.18a.5.5,0,0,1-.5-.5V92.26a.5.5,0,0,1,.5-.5h2.18a.5.5,0,0,1,.5.5V101A.5.5,0,0,1,143.1,101.47Zm-1.68-1h1.18V92.76h-1.18Z" style="fill:#263238"></path><rect x="137.22" y="86.82" width="8.06" height="6.75" style="fill:#fff"></rect><path d="M145.28,94.07h-8.06a.51.51,0,0,1-.5-.5V86.82a.5.5,0,0,1,.5-.5h8.06a.5.5,0,0,1,.5.5v6.75A.5.5,0,0,1,145.28,94.07Zm-7.56-1h7.06V87.32h-7.06Z" style="fill:#263238"></path><path d="M202.4,52.93,191,52.41l-35.71-3a58.55,58.55,0,0,0-27,0l-35.71,3-11.38.52a3.13,3.13,0,0,0-3,3.12v.59a3.13,3.13,0,0,0,3,3.13l16,.92,15,5.44,7.07-.3a4.72,4.72,0,0,1,4.49,2.74l5.43,11.71h25.26l5.42-11.71a4.72,4.72,0,0,1,4.49-2.74l7.07.3,15-5.44,16-.92a3.13,3.13,0,0,0,2.95-3.13v-.59A3.12,3.12,0,0,0,202.4,52.93Z" style="fill:#B0BEC5"></path><path d="M154.43,80.78H129.17a.5.5,0,0,1-.46-.29l-5.42-11.71a4.2,4.2,0,0,0-4-2.45l-7.08.3a.4.4,0,0,1-.19,0l-15-5.42-15.92-.91a3.64,3.64,0,0,1-3.42-3.63v-.59a3.62,3.62,0,0,1,3.46-3.62l11.39-.52,35.69-3a58.79,58.79,0,0,1,27.13,0l35.67,3,11.37.52a3.62,3.62,0,0,1,3.46,3.62v.59a3.64,3.64,0,0,1-3.42,3.63l-15.92.91-15,5.42a.4.4,0,0,1-.19,0l-7.08-.3a4.24,4.24,0,0,0-4,2.45l-5.42,11.71A.49.49,0,0,1,154.43,80.78Zm-24.94-1h24.62l5.28-11.42a5.21,5.21,0,0,1,5-3l7,.3,14.94-5.41a.32.32,0,0,1,.14,0l16-.92a2.63,2.63,0,0,0,2.48-2.63v-.59a2.61,2.61,0,0,0-2.51-2.62h0L191,52.91l-35.74-3a58.1,58.1,0,0,0-26.84,0L92.62,52.91l-11.4.52a2.61,2.61,0,0,0-2.51,2.62v.59a2.63,2.63,0,0,0,2.48,2.63l16,.92.15,0,14.93,5.41,7-.3a5.21,5.21,0,0,1,5,3Z" style="fill:#263238"></path><path d="M126.93,54.37a.52.52,0,0,1-.42-.24L125,51.69a.5.5,0,0,1,.84-.54l1.55,2.45a.51.51,0,0,1-.16.69A.5.5,0,0,1,126.93,54.37Z" style="fill:#263238"></path><path d="M125.26,54.62a.49.49,0,0,1-.42-.23L123.29,52a.51.51,0,0,1,.16-.69.5.5,0,0,1,.69.15l1.54,2.45a.5.5,0,0,1-.15.69A.52.52,0,0,1,125.26,54.62Z" style="fill:#263238"></path><path d="M123.59,54.88a.48.48,0,0,1-.42-.23l-1.55-2.45a.5.5,0,0,1,.16-.69.51.51,0,0,1,.69.16L124,54.11a.5.5,0,0,1-.15.69A.47.47,0,0,1,123.59,54.88Z" style="fill:#263238"></path><path d="M121.92,55.14a.51.51,0,0,1-.43-.23L120,52.46a.5.5,0,1,1,.85-.53l1.54,2.44a.51.51,0,0,1-.42.77Z" style="fill:#263238"></path><path d="M156.14,54.37a.53.53,0,0,1-.27-.08.51.51,0,0,1-.16-.69l1.55-2.45a.5.5,0,0,1,.84.54l-1.54,2.44A.52.52,0,0,1,156.14,54.37Z" style="fill:#263238"></path><path d="M157.81,54.62a.54.54,0,0,1-.27-.07.5.5,0,0,1-.15-.69l1.54-2.45a.5.5,0,0,1,.69-.15.51.51,0,0,1,.16.69l-1.55,2.44A.48.48,0,0,1,157.81,54.62Z" style="fill:#263238"></path><path d="M159.48,54.88a.47.47,0,0,1-.27-.08.5.5,0,0,1-.15-.69l1.54-2.44a.51.51,0,0,1,.69-.16.49.49,0,0,1,.16.69l-1.55,2.45A.48.48,0,0,1,159.48,54.88Z" style="fill:#263238"></path><path d="M161.15,55.14a.51.51,0,0,1-.42-.77l1.55-2.44a.49.49,0,0,1,.69-.16.5.5,0,0,1,.15.69l-1.54,2.45A.51.51,0,0,1,161.15,55.14Z" style="fill:#263238"></path><path d="M130.13,77.63a.5.5,0,0,1-.49-.44L129.21,74a.51.51,0,0,1,.43-.56.49.49,0,0,1,.56.43l.43,3.19a.49.49,0,0,1-.43.56Z" style="fill:#263238"></path><path d="M129.51,73a.5.5,0,0,1-.49-.43L128.41,68a4.27,4.27,0,0,0-3.76-3.68L97.1,61.18a.5.5,0,1,1,.11-1l27.55,3.09a5.27,5.27,0,0,1,4.64,4.54L130,72.4a.51.51,0,0,1-.43.57Z" style="fill:#263238"></path><path d="M151.5,77.63h-.07a.5.5,0,0,1-.43-.56l1.24-9.24a5.27,5.27,0,0,1,4.64-4.54l3.35-.38a.51.51,0,0,1,.56.44.5.5,0,0,1-.45.55l-3.35.38A4.26,4.26,0,0,0,153.23,68L152,77.19A.51.51,0,0,1,151.5,77.63Z" style="fill:#263238"></path><path d="M162.53,63.65a.5.5,0,0,1-.05-1l21.94-2.46a.5.5,0,1,1,.12,1l-21.95,2.46Z" style="fill:#263238"></path><rect x="121.22" y="79.41" width="40.72" height="10.23" style="fill:#fff"></rect><path d="M161.94,90.15H121.22a.5.5,0,0,1-.5-.5V79.41a.5.5,0,0,1,.5-.5h40.72a.51.51,0,0,1,.5.5V89.65A.51.51,0,0,1,161.94,90.15Zm-40.22-1h39.72V79.91H121.72Z" style="fill:#263238"></path><rect x="121.22" y="79.41" width="6.24" height="10.23" style="fill:#fff"></rect><path d="M127.46,90.15h-6.24a.5.5,0,0,1-.5-.5V79.41a.5.5,0,0,1,.5-.5h6.24a.51.51,0,0,1,.5.5V89.65A.51.51,0,0,1,127.46,90.15Zm-5.74-1H127V79.91h-5.24Z" style="fill:#263238"></path><rect x="155.7" y="79.41" width="6.24" height="10.23" style="fill:#fff"></rect><path d="M161.94,90.15H155.7a.5.5,0,0,1-.5-.5V79.41a.5.5,0,0,1,.5-.5h6.24a.51.51,0,0,1,.5.5V89.65A.51.51,0,0,1,161.94,90.15Zm-5.74-1h5.24V79.91H156.2Z" style="fill:#263238"></path><rect x="127.53" y="81.15" width="28.09" height="6.53" style="fill:#fff"></rect><path d="M155.62,88.19H127.53a.51.51,0,0,1-.5-.5V81.15a.51.51,0,0,1,.5-.5h28.09a.5.5,0,0,1,.5.5v6.54A.5.5,0,0,1,155.62,88.19Zm-27.59-1h27.09V81.65H128Z" style="fill:#263238"></path><rect x="127.53" y="81.15" width="28.09" height="3.38" style="fill:#263238"></rect><path d="M155.62,85H127.53a.5.5,0,0,1-.5-.5V81.15a.51.51,0,0,1,.5-.5h28.09a.5.5,0,0,1,.5.5v3.38A.5.5,0,0,1,155.62,85ZM128,84h27.09V81.65H128Z" style="fill:#263238"></path><rect x="136.35" y="97.92" width="10.45" height="6.53" style="fill:#fff"></rect><path d="M146.8,105H136.35a.51.51,0,0,1-.5-.5V97.92a.51.51,0,0,1,.5-.5H146.8a.5.5,0,0,1,.5.5v6.54A.5.5,0,0,1,146.8,105Zm-10-1h9.45V98.42h-9.45Z" style="fill:#263238"></path><rect x="127.86" y="102.71" width="6.97" height="9.8" transform="translate(262.69 215.22) rotate(180)" style="fill:#263238"></rect><path d="M134.83,113h-7a.5.5,0,0,1-.5-.5v-9.8a.5.5,0,0,1,.5-.5h7a.51.51,0,0,1,.5.5v9.8A.5.5,0,0,1,134.83,113Zm-6.47-1h6v-8.8h-6Z" style="fill:#263238"></path><rect x="133.3" y="103.85" width="8.41" height="7.52" transform="translate(275.02 215.23) rotate(180)" style="fill:#fff"></rect><path d="M141.72,111.87H133.3a.5.5,0,0,1-.5-.5v-7.52a.5.5,0,0,1,.5-.5h8.42a.5.5,0,0,1,.5.5v7.52A.5.5,0,0,1,141.72,111.87Zm-7.92-1h7.42v-6.52H133.8Z" style="fill:#263238"></path><rect x="131.78" y="102.71" width="3.05" height="9.8" transform="translate(266.61 215.22) rotate(180)" style="fill:#fff"></rect><path d="M134.83,113h-3.05a.5.5,0,0,1-.5-.5v-9.8a.5.5,0,0,1,.5-.5h3.05a.51.51,0,0,1,.5.5v9.8A.5.5,0,0,1,134.83,113Zm-2.55-1h2.05v-8.8h-2.05Z" style="fill:#263238"></path><rect x="139.18" y="100.54" width="17.42" height="15.24" style="fill:#fff"></rect><path d="M156.6,116.28H139.18a.51.51,0,0,1-.5-.5V100.54a.5.5,0,0,1,.5-.5H156.6a.5.5,0,0,1,.5.5v15.24A.5.5,0,0,1,156.6,116.28Zm-16.92-1H156.1V101H139.68Z" style="fill:#263238"></path><path d="M154.21,108.16a6.32,6.32,0,1,0-6.32,6.31A6.32,6.32,0,0,0,154.21,108.16Z" style="fill:#fff"></path><path d="M147.89,115a6.82,6.82,0,1,1,6.82-6.81A6.82,6.82,0,0,1,147.89,115Zm0-12.63a5.82,5.82,0,1,0,5.82,5.82A5.82,5.82,0,0,0,147.89,102.34Z" style="fill:#263238"></path><path d="M153.34,108.16a5.45,5.45,0,1,0-5.45,5.44A5.45,5.45,0,0,0,153.34,108.16Z" style="fill:#263238"></path><path d="M147.89,114.1a5.95,5.95,0,1,1,6-5.94A6,6,0,0,1,147.89,114.1Zm0-10.89a4.95,4.95,0,1,0,5,5A5,5,0,0,0,147.89,103.21Z" style="fill:#263238"></path></g></svg>